<?xml version="1.0" encoding="UTF-8"?>
<svg width="100px" height="26px" viewBox="0 0 100 26" version="1.1" xmlns="http://www.w3.org/2000/svg" xmlns:xlink="http://www.w3.org/1999/xlink">
    <!-- Generator: Sketch 54 (76480) - https://sketchapp.com -->
    <title>Group 3</title>
    <desc>Created with Sketch.</desc>
    <g id="desktop" stroke="none" stroke-width="1" fill="none" fill-rule="evenodd">
        <g id="01-home-idwall" transform="translate(-910.000000, -747.000000)">
            <g id="hero" transform="translate(0.000000, 72.000000)">
                <g id="Group-3" transform="translate(960.000000, 688.000000) rotate(-180.000000) translate(-960.000000, -688.000000) translate(910.000000, 675.000000)">
                    <path d="M2.28280435,24.9547101 C1.26236957,25.0742754 0.495623188,25.1642029 0,25.3623188 L49.9986957,25.3623188 C49.9986957,25.3623188 49.9998551,20.7526812 50,14.14 C50,15.018913 50.0000725,15.8617391 50.0000725,16.6634783 L50.0013043,25.3623188 L100,25.3623188 C99.5043478,25.1642029 98.7376812,25.0742754 97.7173913,24.9547101 C95.0072464,24.6373188 90.5094203,24.1107971 84.5492754,20.7880435 C80.4456522,18.3986232 77.1905797,15.2007971 73.9637681,12.0307971 C67.787971,5.96446377 61.7163043,-1.43466667e-15 50.0013043,0 C50.0004348,3.81956522 50,7.5573913 50,10.9385507 C50,7.55702899 49.9995652,3.81991304 49.9986957,0 C38.2836232,1.43468116e-15 32.212029,5.96446377 26.0363768,12.0307971 C22.8095652,15.2007971 19.5543478,18.3986232 15.4507971,20.7880435 C9.49086957,24.1107971 4.9925,24.6373188 2.28280435,24.9547101 Z" id="path0_fill-copy" fill="#FFFFFF" fill-rule="nonzero" transform="translate(50.000000, 12.681159) scale(-1, 1) rotate(-180.000000) translate(-50.000000, -12.681159) "></path>
                    <path d="M49.2928932,9.29289322 L43.7071068,3.70710678 C43.3165825,3.31658249 43.3165825,2.68341751 43.7071068,2.29289322 C43.8946432,2.10535684 44.1489971,2 44.4142136,2 L55.5857864,2 C56.1380712,2 56.5857864,2.44771525 56.5857864,3 C56.5857864,3.26521649 56.4804296,3.5195704 56.2928932,3.70710678 L50.7071068,9.29289322 C50.3165825,9.68341751 49.6834175,9.68341751 49.2928932,9.29289322 Z" id="Triangle-Copy" fill="#5500FF" transform="translate(50.000000, 6.000000) rotate(-180.000000) translate(-50.000000, -6.000000) "></path>
                </g>
            </g>
        </g>
    </g>
</svg>